<?xml version="1.0" encoding="utf-8"?>
<!-- Generator: Adobe Illustrator 24.0.1, SVG Export Plug-In . SVG Version: 6.00 Build 0)  -->
<svg version="1.1" id="Layer_1" xmlns="http://www.w3.org/2000/svg" xmlns:xlink="http://www.w3.org/1999/xlink" x="0px" y="0px"
	 viewBox="0 0 50 50" style="enable-background:new 0 0 50 50;" xml:space="preserve">
<style type="text/css">
	.st0{fill-rule:evenodd;clip-rule:evenodd;}
</style>
<path class="st0" d="M18.67,49.17c-0.37-0.38-0.37-3.81,0-10.27c-3.99,0.11-6.51-0.11-7.56-0.66c-1.58-0.83-3.16-3.38-4.56-5.19
	c-1.4-1.8-4.51-2.09-5.77-2.49c-1.26-0.4-1.57-2.04,3.46-0.8c5.03,1.24,5.28,4.62,6.87,5.41c1.59,0.79,5.38,0.44,7.1-0.19
	c1.72-0.63,1.59-2.99,1.9-3.92c0.39-0.87-0.98-1.07-1.01-1.07c-1.68,0-10.5-1.53-12.93-8.36c-2.42-6.83,0.7-11.29,2.36-13.2
	c1.11-1.28,1.01-4-0.29-8.17c4.74-0.48,8.41,0.71,10.98,3.58c0,0.02,3.38-1.6,8.72-1.6c5.34,0,7.23,1.32,8.69,1.6
	c1.46,0.28,2.63-5.02,11.66-3.58c-1.88,2.96-3.46,6.66-2.26,8.17c1.2,1.52,5.93,6.35,3.03,13.2c-1.94,4.57-5.74,7.36-11.42,8.36
	c-0.65,0.17-0.98,0.43-0.98,0.8c0,0.55,0.88,0.61,2.15,3.21c0.84,1.73,0.91,6.67,0.18,14.82c-1.83,0.37-3.26,0.62-4.27,0.75
	c-1.81,0.23-3.77,0.35-5.69,0.4c-1.93,0.05-2.59,0.04-5.26-0.15C22.01,49.69,20.31,49.47,18.67,49.17z"/>
</svg>
