<?xml version="1.0" encoding="utf-8"?>
<!-- Generator: Adobe Illustrator 24.0.1, SVG Export Plug-In . SVG Version: 6.00 Build 0)  -->
<svg version="1.1" id="Layer_1" xmlns="http://www.w3.org/2000/svg" xmlns:xlink="http://www.w3.org/1999/xlink" x="0px" y="0px"
	 viewBox="0 0 50 50" style="enable-background:new 0 0 50 50;" xml:space="preserve">
<path d="M1,0C0.37,0.1-0.06,0.62,0.01,1.19l4.3,42.86c0.06,0.44,0.4,0.8,0.87,0.92l19.48,4.99c0.22,0.06,0.46,0.06,0.68,0
	l19.48-4.99c0.47-0.12,0.82-0.48,0.87-0.92l4.3-42.86c0.03-0.31-0.08-0.61-0.31-0.84C49.45,0.13,49.12,0,48.78,0H1.23
	C1.19,0,1.15,0,1.11,0S1.03,0,1,0z M2.56,2.17h44.89L43.38,43.1L25,47.75L6.63,43.1L2.56,2.17z M9.82,8.76
	c-0.63,0.1-1.06,0.62-0.99,1.19l1.64,16.06c0.04,0.56,0.55,1,1.18,1.02h19.44l-0.53,4.99l-5.52,1.05l-5.59-1.05l-0.19-1.77
	c-0.04-0.57-0.58-1.02-1.22-1.02H12.1c-0.34,0-0.67,0.13-0.9,0.35c-0.23,0.23-0.35,0.53-0.31,0.84l0.68,6.66
	c0.04,0.44,0.37,0.82,0.84,0.95l12.1,3.29l0.15,0.03c0.22,0.06,0.46,0.06,0.68,0l12.25-3.33c0.49-0.12,0.83-0.5,0.87-0.95l1.6-16.33
	c0.03-0.3-0.08-0.6-0.3-0.82c-0.22-0.22-0.54-0.36-0.88-0.37H18.15l-0.3-3.36h21.57c0.63,0,1.16-0.42,1.22-0.98l0.53-5.26
	c0.03-0.31-0.08-0.61-0.31-0.84c-0.23-0.22-0.56-0.35-0.9-0.35h-29.9C9.97,8.75,9.9,8.75,9.82,8.76z M11.38,10.94h27.24l-0.3,3.09
	h-21.8c-0.34,0-0.67,0.13-0.9,0.35c-0.23,0.23-0.35,0.53-0.31,0.84l0.57,5.54c0.06,0.55,0.57,0.97,1.18,0.98h20.5l-1.45,14.43
	L25,39.16l-11.11-2.99l-0.46-4.75h3.5l0.15,1.6c0.04,0.48,0.42,0.88,0.95,0.98l6.77,1.26c0.16,0.03,0.33,0.03,0.49,0l6.66-1.26
	c0.53-0.11,0.91-0.51,0.95-0.98l0.72-7c0.02-0.3-0.1-0.59-0.33-0.81c-0.23-0.22-0.55-0.34-0.89-0.34H12.75L11.38,10.94z"/>
</svg>
