<?xml version="1.0" encoding="utf-8"?>
<!-- Generator: Adobe Illustrator 24.0.1, SVG Export Plug-In . SVG Version: 6.00 Build 0)  -->
<svg version="1.1" id="Layer_1" xmlns="http://www.w3.org/2000/svg" xmlns:xlink="http://www.w3.org/1999/xlink" x="0px" y="0px"
	 viewBox="0 0 50 50" style="enable-background:new 0 0 50 50;" xml:space="preserve">
<g>
	<g>
		<path d="M43.44,15.8L29.59,1.54c-0.28-0.3-0.75-0.51-1.22-0.51H7.15c-1.02,0-1.87,0.92-1.87,2.04v43.92
			c0,1.12,0.85,2.04,1.87,2.04h34.98c1.02,0,1.87-0.92,1.87-2.14V17.23C44,16.72,43.81,16.21,43.44,15.8z M30.16,7.72l7.44,7.68
			h-7.44V7.72L30.16,7.72z M40.35,45.05H8.92V5.11H26.5v12.22c0,1.12,0.85,2.04,1.87,2.04h11.97L40.35,45.05L40.35,45.05z"/>
		<g>
			<path d="M29.75,30.64c-1.11,0-2.02-0.98-2.02-2.19s0.9-2.19,2.02-2.19c0.56,0,1.08,0.24,1.47,0.7c0.52,0.59,1.36,0.62,1.9,0.06
				c0.54-0.56,0.56-1.48,0.06-2.07c-0.88-1.03-2.13-1.62-3.43-1.62c-2.59,0-4.7,2.3-4.7,5.12s2.11,5.12,4.7,5.12
				c1.11,0,2.02,0.98,2.02,2.19s-0.9,2.19-2.02,2.19c-0.56,0-1.08-0.24-1.47-0.7c-0.52-0.59-1.36-0.62-1.9-0.06
				c-0.54,0.56-0.56,1.48-0.06,2.07c0.88,1.03,2.13,1.62,3.43,1.62c2.59,0,4.7-2.3,4.7-5.12C34.45,32.95,32.35,30.64,29.75,30.64z"
				/>
			<path d="M21.77,23.33c-0.75,0-1.35,0.66-1.35,1.47v11.58c0,0.88-0.65,1.59-1.46,1.59c-0.81,0-1.46-0.72-1.46-1.59v-1.11
				c0-0.81-0.6-1.47-1.35-1.47c-0.75,0-1.35,0.66-1.35,1.47v1.11c0,2.49,1.86,4.52,4.15,4.52s4.15-2.03,4.15-4.52V24.79
				C23.12,23.98,22.51,23.33,21.77,23.33z"/>
		</g>
	</g>
</g>
</svg>
