<?xml version="1.0" encoding="utf-8"?>
<!-- Generator: Adobe Illustrator 24.0.1, SVG Export Plug-In . SVG Version: 6.00 Build 0)  -->
<svg version="1.1" id="Layer_1" xmlns="http://www.w3.org/2000/svg" xmlns:xlink="http://www.w3.org/1999/xlink" x="0px" y="0px"
	 viewBox="0 0 50 50" style="enable-background:new 0 0 50 50;" xml:space="preserve">
<path d="M37.61,23.63c0.37-0.04,0.74-0.04,1.1,0c0.2-0.43,0.23-1.16,0.05-1.96c-0.27-1.19-0.62-1.91-1.36-1.8
	c-0.74,0.11-0.77,0.97-0.5,2.16C37.06,22.7,37.32,23.27,37.61,23.63L37.61,23.63z M31.28,24.57c0.53,0.22,0.85,0.36,0.98,0.24
	c0.08-0.08,0.06-0.23-0.07-0.42c-0.26-0.4-0.8-0.81-1.37-1.04c-1.2-0.47-2.57-0.31-3.62,0.41c-0.35,0.24-0.69,0.58-0.64,0.79
	c0.02,0.07,0.07,0.12,0.19,0.13c0.29,0.03,1.31-0.45,2.48-0.52C30.06,24.11,30.75,24.35,31.28,24.57L31.28,24.57z M30.21,25.14
	c-0.69,0.1-1.07,0.32-1.31,0.51c-0.21,0.17-0.34,0.36-0.34,0.49l0.05,0.12l0.11,0.04c0.16,0,0.51-0.13,0.51-0.13
	c0.71-0.25,1.47-0.33,2.21-0.22c0.34,0.04,0.51,0.06,0.58-0.05c0.02-0.03,0.05-0.1-0.02-0.21C31.86,25.45,31.16,25.03,30.21,25.14
	L30.21,25.14z M35.47,27.23c0.47,0.22,0.98,0.13,1.15-0.19c0.17-0.32-0.08-0.76-0.54-0.97c-0.47-0.22-0.98-0.13-1.15,0.19
	C34.76,26.58,35.01,27.02,35.47,27.23z M38.48,24.76c-0.38-0.01-0.7,0.39-0.7,0.88c-0.01,0.49,0.29,0.89,0.67,0.9
	c0.38,0.01,0.7-0.39,0.7-0.87C39.15,25.17,38.85,24.77,38.48,24.76z M13,33.6c-0.09-0.11-0.25-0.08-0.4-0.04
	c-0.12,0.03-0.23,0.04-0.35,0.05c-0.26,0.01-0.5-0.11-0.65-0.31c-0.17-0.25-0.16-0.62,0.03-1.05l0.09-0.19
	c0.31-0.64,0.82-1.72,0.24-2.74c-0.43-0.77-1.13-1.25-1.98-1.35c-0.81-0.1-1.62,0.18-2.18,0.74c-0.84,0.87-0.97,2.06-0.81,2.48
	c0.06,0.15,0.15,0.2,0.22,0.2c0.14,0.02,0.35-0.08,0.49-0.42l0.04-0.11c0.06-0.18,0.17-0.51,0.35-0.77c0.46-0.66,1.4-0.85,2.11-0.42
	c0,0,0,0,0,0c0.59,0.36,0.82,1.04,0.56,1.69c-0.13,0.34-0.34,0.97-0.29,1.5c0.1,1.07,0.79,1.49,1.41,1.54
	c0.61,0.02,1.03-0.3,1.14-0.54C13.09,33.72,13.03,33.64,13,33.6L13,33.6L13,33.6z M48.05,31.65c-0.02-0.08-0.17-0.6-0.38-1.22
	l-0.42-1.06c0.83-1.17,0.84-2.22,0.74-2.81c-0.12-0.74-0.44-1.36-1.1-2.01c-0.65-0.65-1.99-1.31-3.88-1.81l-0.99-0.26
	c0-0.04-0.05-2.19-0.1-3.12c-0.03-0.67-0.09-1.71-0.43-2.74c-0.41-1.39-1.12-2.61-2.02-3.39c2.46-2.4,3.99-5.05,3.99-7.31
	c-0.01-4.36-5.69-5.69-12.7-2.95l-1.48,0.59c-0.91-0.84-1.82-1.68-2.72-2.51c-8-6.57-32.98,19.6-25,25.96L3.3,28.4
	c-0.47,1.19-0.64,2.47-0.49,3.74c0.19,1.75,1.15,3.42,2.7,4.72c1.47,1.23,3.41,2.01,5.29,2.01c3.11,6.75,10.21,10.89,18.54,11.12
	c8.94,0.25,16.43-3.7,19.58-10.8c0.21-0.5,1.08-2.74,1.08-4.72C50,32.48,48.81,31.65,48.05,31.65z M11.49,36.97
	c-0.27,0.04-0.55,0.06-0.83,0.06c-2.7-0.07-5.61-2.36-5.9-5.07c-0.32-3,1.31-5.31,4.19-5.85c0.4-0.07,0.81-0.1,1.21-0.08
	c1.61,0.08,3.99,1.25,4.54,4.56C15.18,33.51,14.41,36.5,11.49,36.97L11.49,36.97z M8.48,24.3c-1.79,0.33-3.38,1.29-4.34,2.61
	c-0.58-0.45-1.65-1.33-1.85-1.67c-1.54-2.76,1.68-8.13,3.94-11.16c5.58-7.49,14.3-13.16,18.34-12.13c0.66,0.17,2.83,2.55,2.83,2.55
	s-4.04,2.11-7.78,5.05C14.57,13.2,10.76,18.52,8.48,24.3L8.48,24.3z M36.8,35.85c0.06-0.03,0.1-0.09,0.09-0.15
	c-0.01-0.08-0.08-0.13-0.16-0.13c0,0,0,0,0,0c0,0-4.23,0.59-8.22-0.79c0.43-1.33,1.59-0.85,3.34-0.72c2.72,0.15,5.44-0.13,8.06-0.82
	c1.81-0.49,4.18-1.45,6.03-2.82c0.62,1.29,0.84,2.7,0.84,2.7s0.48-0.08,0.88,0.15c0.38,0.22,0.66,0.68,0.47,1.86
	c-0.39,2.21-1.39,4.01-3.07,5.67c-1.05,1.07-2.3,1.95-3.68,2.59c-0.77,0.38-1.57,0.7-2.4,0.96c-6.33,1.95-12.81-0.19-14.9-4.79
	c-0.17-0.35-0.31-0.72-0.42-1.09c-0.89-3.03-0.13-6.67,2.23-8.96c0.14-0.15,0.29-0.32,0.29-0.53c0-0.18-0.12-0.37-0.23-0.51
	c-0.83-1.13-3.69-3.05-3.11-6.78c0.41-2.68,2.9-4.56,5.21-4.45l0.59,0.03c1,0.06,1.88,0.18,2.71,0.21c1.38,0.06,2.62-0.13,4.1-1.29
	c0.5-0.39,0.89-0.73,1.57-0.84c0.07-0.01,0.25-0.07,0.6-0.05c0.36,0.01,0.71,0.12,1.01,0.3c1.18,0.74,1.35,2.53,1.41,3.84
	c0.04,0.75,0.13,2.56,0.16,3.08c0.08,1.19,0.41,1.35,1.08,1.56c0.38,0.12,0.73,0.21,1.24,0.34c1.56,0.41,2.49,0.83,3.07,1.37
	c0.35,0.34,0.51,0.69,0.56,1.04c0.19,1.27-1.04,2.83-4.29,4.25c-3.55,1.55-7.86,1.95-10.84,1.64l-1.04-0.11
	c-2.38-0.3-3.74,2.6-2.31,4.59c0.92,1.28,3.43,2.11,5.94,2.11c5.76,0,10.18-2.31,11.83-4.32l0.13-0.18
	c0.08-0.11,0.01-0.18-0.09-0.11c-1.34,0.87-7.32,4.31-13.71,3.27c0,0-0.78-0.12-1.48-0.38c-0.56-0.21-1.74-0.72-1.88-1.86
	C33.56,37.27,36.8,35.85,36.8,35.85L36.8,35.85z M28.63,34.94L28.63,34.94L28.63,34.94L28.63,34.94z M18.77,14.04
	c1.98-2.16,4.42-4.03,6.6-5.09c0.08-0.04,0.16,0.04,0.12,0.11c-0.17,0.3-0.51,0.93-0.61,1.41c-0.01,0.04,0.02,0.09,0.07,0.1
	c0.02,0,0.05,0,0.07-0.01c1.36-0.87,3.72-1.81,5.8-1.93c0.09-0.01,0.13,0.1,0.06,0.15c-0.34,0.25-0.65,0.54-0.91,0.86
	c-0.03,0.04-0.02,0.09,0.02,0.12c0.01,0.01,0.03,0.02,0.05,0.02c1.46,0.01,3.51,0.49,4.85,1.2c0.09,0.05,0.03,0.21-0.08,0.19
	c-2.02-0.44-5.34-0.77-8.78,0.02c-3.07,0.71-5.42,1.8-7.13,2.97C18.8,14.22,18.7,14.12,18.77,14.04L18.77,14.04z"/>
</svg>
