<?xml version="1.0" encoding="utf-8"?>
<!-- Generator: Adobe Illustrator 24.0.1, SVG Export Plug-In . SVG Version: 6.00 Build 0)  -->
<svg version="1.1" id="Layer_1" xmlns="http://www.w3.org/2000/svg" xmlns:xlink="http://www.w3.org/1999/xlink" x="0px" y="0px"
	 viewBox="0 0 50 50" style="enable-background:new 0 0 50 50;" xml:space="preserve">
<path d="M25,6C11.2,6,0,14.72,0,25.5S11.2,45,25,45s25-8.73,25-19.5S38.8,6,25,6z M25,7.95c13.39,0,23.69,8.36,23.69,17.55
	S38.38,43.05,25,43.05c-13.39,0-23.69-8.37-23.69-17.56S11.62,7.95,25,7.95z M21.96,11.81l-2.53,19.33h2.82l1.46-11.07
	c2.3,0,3.24-0.14,3.66,0.53c0.43,0.69,0.21,1.44-0.98,10.55h2.86c1.24-9.41,1.78-11.41,0.64-12.97c-1.09-1.49-3.35-1.23-5.78-1.23
	l0.67-5.13H21.96z M10.14,16.96L7.61,36.3h2.84l0.67-5.14c3.18,0,5.15,0.34,6.97-2.19c2.02-2.75,2.54-7.65,1.1-10.1
	c-0.75-1.28-1.96-1.91-3.59-1.91H10.14z M32.31,16.96L29.78,36.3h2.84l0.67-5.14c3.34,0,5.19,0.29,6.97-2.19
	c2.02-2.75,2.54-7.65,1.1-10.1c-0.75-1.28-1.96-1.91-3.59-1.91H32.31z M14.59,20c1.77,0.07,2.79,0.63,2.36,3.93
	c-0.61,4.64-2.77,4.16-5.42,4.16l1.06-8.09C13.32,20.01,14,19.98,14.59,20z M36.76,20c1.78,0.07,2.78,0.63,2.35,3.93
	c-0.62,4.71-2.84,4.16-5.42,4.16l1.06-8.09C35.49,20.01,36.17,19.98,36.76,20z"/>
</svg>
