<?xml version="1.0" encoding="utf-8"?>
<!-- Generator: Adobe Illustrator 24.0.1, SVG Export Plug-In . SVG Version: 6.00 Build 0)  -->
<svg version="1.1" id="Layer_1" xmlns="http://www.w3.org/2000/svg" xmlns:xlink="http://www.w3.org/1999/xlink" x="0px" y="0px"
	 viewBox="0 0 50 50" style="enable-background:new 0 0 50 50;" xml:space="preserve">
<path d="M32.59,48.96L49,45.84c0,0-5.92-35.23-5.97-35.46c-0.04-0.23-0.26-0.38-0.48-0.38s-4.39-0.27-4.39-0.27s-2.9-2.55-3.27-2.82
	c-0.1-0.07-0.17-0.11-0.28-0.15l-2.08,42.21C32.54,48.96,32.59,48.96,32.59,48.96z M24.34,23.61c0,0-1.84-0.85-4.03-0.85
	c-3.29,0-3.42,1.81-3.42,2.28c0,2.46,7.37,3.43,7.37,9.26c0,4.59-3.28,7.52-7.75,7.52c-5.35,0-8.05-2.93-8.05-2.93l1.47-4.17
	c0,0,2.83,2.13,5.19,2.13c1.54,0,2.22-1.09,2.22-1.86c0-3.24-6.04-3.39-6.04-8.72c-0.08-4.47,3.57-8.83,10.98-8.83
	c2.86,0,4.26,0.72,4.26,0.72l-2.15,5.43C24.38,23.59,24.34,23.61,24.34,23.61z M23.11,2.66c0.31,0,0.62,0.08,0.92,0.27
	c-2.24,0.93-4.69,3.28-5.7,7.98c-1.49,0.43-2.94,0.81-4.3,1.16c1.18-3.57,4.03-9.39,9.08-9.39V2.66z M25.92,8.56v0.27
	c-1.71,0.46-3.6,0.97-5.44,1.47c1.06-3.55,3.03-5.29,4.74-5.94C25.66,5.36,25.92,6.71,25.92,8.56z M27.15,4.09
	c1.58,0.15,2.6,1.73,3.25,3.51c-0.79,0.23-1.67,0.46-2.63,0.73v-0.5C27.76,6.32,27.54,5.09,27.15,4.09
	C27.15,4.09,27.15,4.09,27.15,4.09z M33.95,6.67c-0.05,0-0.14,0.04-0.18,0.04c-0.04,0-0.66,0.15-1.62,0.42
	c-0.96-2.47-2.67-4.74-5.7-4.74h-0.26C25.31,1.42,24.25,1,23.33,1c-7.06,0-10.44,7.75-11.5,11.69c-2.72,0.73-4.69,1.27-4.91,1.35
	c-1.54,0.43-1.58,0.46-1.76,1.74C4.99,16.7,1,43.91,1,43.91L31.84,49C31.84,49,33.95,6.67,33.95,6.67z"/>
</svg>
