<?xml version="1.0" encoding="utf-8"?>
<!-- Generator: Adobe Illustrator 24.0.1, SVG Export Plug-In . SVG Version: 6.00 Build 0)  -->
<svg version="1.1" id="Layer_1" xmlns="http://www.w3.org/2000/svg" xmlns:xlink="http://www.w3.org/1999/xlink" x="0px" y="0px"
	 viewBox="0 0 50 50" style="enable-background:new 0 0 50 50;" xml:space="preserve">
<path d="M28.46,12.47c-0.95,0.67-1.31,1.79-1.31,4.91c0,0,0.48-0.62,1.2-0.97c0.52-0.25,0.97-0.63,1.22-0.89
	c0.8-0.79,0.93-1.81,0.93-3.51C30.5,12,29.19,11.95,28.46,12.47 M22.82,13.2c-0.78,0.92-1,2.38-1,2.38L19.25,28.9l-2.14-10.91
	c-0.21-1.16-0.58-2.59-1.18-3.56c-0.76-1.23-2.29-1.31-2.46-1.31c-0.16,0-1.7,0.08-2.46,1.31c-0.59,0.97-0.97,2.4-1.18,3.56
	L7.71,28.9L5.15,15.57c0,0-0.23-1.46-1-2.38C2.88,11.71,1,12.03,1,12.03l4.92,24.91c0,0,1.62,0.16,2.43-0.4
	c1.07-0.73,1.57-1.29,2.22-4.68c0.57-3.02,2.18-11.89,2.33-12.53c0.08-0.31,0.17-1.06,0.58-1.06c0.42,0,0.5,0.74,0.58,1.06
	c0.15,0.63,1.76,9.51,2.33,12.53c0.65,3.39,1.15,3.95,2.22,4.68c0.81,0.55,2.43,0.4,2.43,0.4l4.92-24.91
	C25.97,12.03,24.08,11.71,22.82,13.2 M30.5,16.1c0,0-0.31,0.64-1.01,1.16c-0.45,0.34-0.88,0.57-1.35,0.87
	c-0.78,0.5-0.99,1.06-0.99,1.9v16.91c0,0,1.24,0.21,2.05-0.34c1.04-0.71,1.28-1.4,1.29-4.5V17h0V16.1z M42.76,24.54L49,12.11
	c0,0-2.63-0.6-3.94,0.99c-0.83,1.02-1.77,2.85-1.77,2.85L41,20.38c-0.11,0.23-0.26,0.48-0.49,0.48c-0.23,0-0.38-0.25-0.49-0.48
	l-2.3-4.43c0,0-0.93-1.83-1.77-2.85c-1.3-1.59-3.94-0.99-3.94-0.99l6.24,12.43l-6.22,12.39c0,0,2.74,0.47,4.05-1.13
	c0.83-1.02,1.64-2.67,1.64-2.67l2.3-4.43c0.11-0.23,0.26-0.48,0.49-0.48c0.23,0,0.38,0.25,0.49,0.48l2.3,4.43
	c0,0,0.85,1.66,1.69,2.67c1.3,1.59,4,1.13,4,1.13L42.76,24.54z"/>
</svg>
